Coordinates
version=1
nRows=8
nColumns=40
inDegrees=yes

Units are S.I. units (second, meters, Newtons, ...)
If the header above contains a line with 'inDegrees', this indicates whether rotational values are in degrees (yes) or radians (no).

endheader
time	pelvis_tilt	pelvis_list	pelvis_rotation	pelvis_tx	pelvis_ty	pelvis_tz	hip_flexion_r	hip_adduction_r	hip_rotation_r	knee_angle_r	knee_angle_r_beta	ankle_angle_r	subtalar_angle_r	mtp_angle_r	hip_flexion_l	hip_adduction_l	hip_rotation_l	knee_angle_l	knee_angle_l_beta	ankle_angle_l	subtalar_angle_l	mtp_angle_l	lumbar_extension	lumbar_bending	lumbar_rotation	arm_flex_r	arm_add_r	arm_rot_r	elbow_flex_r	pro_sup_r	wrist_flex_r	wrist_dev_r	arm_flex_l	arm_add_l	arm_rot_l	elbow_flex_l	pro_sup_l	wrist_flex_l	wrist_dev_l
     17.92000000000000170530	     16.04308052437700382598	     -6.01072462759260517373	    172.65700696603263963880	      0.27704002121778914525	      0.92478262998036220299	     -0.59471693810581671702	     39.35089788515323050433	     -6.80911980093145263737	      1.29162715058491173181	     26.61084731503543210351	      0.46444690239286107181	      4.41247024505770202296	      0.00000000000000000000	      0.00000000000000000000	     36.87909502710508036216	     -1.75191255566636661101	    -13.37460521849830996644	     28.90634996870938877578	      0.50451098168773866881	      7.96316226697787055144	      0.00000000000000000000	      0.00000000000000000000	    -19.43016936609983957851	     -5.52809369146284179664	      0.32752837511996879538	     24.98472629002351297345	    -15.68845830609143554568	     47.80013371765480201248	     12.42199276275328756469	     15.32442295907001295063	      0.00000000000000000000	      0.00000000000000000000	     31.71361077004968365145	    -19.47237774161451184796	     48.00812349134154288777	     18.02684326971450801125	     84.15601937030068313561	      0.00000000000000000000	      0.00000000000000000000
     17.92500000000000071054	     15.10044488282955477132	     -5.98456575359483178289	    172.59885125597159571953	      0.27553116288797280253	      0.92716427345435226126	     -0.59500474239525091846	     38.02818659800338707555	     -6.91577614247682426196	      1.31063003649195453093	     26.19853516491158629265	      0.45725069782722277401	      4.38100435474523752788	      0.00000000000000000000	      0.00000000000000000000	     35.47481843515529220667	     -1.53537385813708771032	    -13.30893777910628728023	     28.28637947147055697883	      0.49369045524569465933	      7.94270822343826399248	      0.00000000000000000000	      0.00000000000000000000	    -19.88845019459996876776	     -5.59723121032255033214	      0.24226092937964988083	     24.60698098407560152623	    -16.11477094599150206022	     48.72758912655954333104	     13.12319691458839088227	     15.54162673131794036863	      0.00000000000000000000	      0.00000000000000000000	     31.45379244247208561092	    -19.71409401121545457158	     47.95405594684356032076	     18.35168480713939587190	     85.60929497256542219930	      0.00000000000000000000	      0.00000000000000000000
     17.92999999999999971578	     14.66615889929922644797	     -5.97752110333776265350	    172.56462450242452177918	      0.27429964139691659364	      0.92828110184233370017	     -0.59535565896924702578	     37.43427644309151958169	     -6.96460893651586854247	      1.33721129802516225382	     26.11870499527191569200	      0.45585739852458490029	      4.42624138260434651926	      0.00000000000000000000	      0.00000000000000000000	     34.82057746362692540743	     -1.46924351722468893300	    -13.34363473838242875047	     28.07466676438302144447	      0.48999537143870686151	      7.92221220692939187558	      0.00000000000000000000	      0.00000000000000000000	    -19.70187416429408955310	     -5.64717062749309572922	      0.26830507469134218246	     24.20340343080406597664	    -16.19073712160712119612	     48.95148888322664504358	     13.42920817105107111900	     14.16051950054660224509	      0.00000000000000000000	      0.00000000000000000000	     31.08380627231249349052	    -19.85384603795494129486	     48.10382166658421709826	     18.52945430767208989664	     85.65474365143671775513	      0.00000000000000000000	      0.00000000000000000000
     17.93499999999999872102	     14.41087655193267735854	     -5.64646091421159557200	    172.87714170676628100409	      0.27315191019567891528	      0.92909145817072091855	     -0.59509668051908926056	     36.85795925674697315344	     -6.91430827919196921982	      0.86695653645426618006	     25.94877039537200147379	      0.45289148024327219311	      4.46011920889935620238	      0.00000000000000000000	      0.00000000000000000000	     34.48293151938153755509	     -1.53434155689498052944	    -12.83876156800319456863	     28.08986593286226352006	      0.49026064697223498134	      7.96624362108032002538	      0.00000000000000000000	      0.00000000000000000000	    -19.38308246453835792522	     -5.20569522374632409623	      0.18343542225769959852	     23.76527628699483685182	    -16.30955816681354164643	     48.63000779970909803751	     13.47498230763570603585	     14.48523233622622541361	      0.00000000000000000000	      0.00000000000000000000	     30.74956536640200965849	    -19.80307379895550923266	     48.18838580735718579717	     18.57444418928227136689	     85.65802874719929604908	      0.00000000000000000000	      0.00000000000000000000
     17.94000000000000127898	     13.70279769076380560477	     -5.68216996561829201795	    172.67759748289009280597	      0.27169876962761752015	      0.93045106713341141358	     -0.59579635654488594110	     36.05031404304109798886	     -6.95078747845032030028	      0.95195917624094406051	     25.98147371755099399593	      0.45346226089163610418	      4.60825311507736490313	      0.00000000000000000000	      0.00000000000000000000	     33.46342099279005566359	     -1.49323331814776061321	    -13.12353845849794709011	     27.81342793842083338518	      0.48543589379162221942	      8.14470229362509812177	      0.00000000000000000000	      0.00000000000000000000	    -19.45281636054176033213	     -5.38422122498650335132	      0.30443403573678423646	     23.41422250488450274020	    -16.38712119757740381942	     48.93934449059020153072	     13.57506522623849498643	     14.62868691184332625710	      0.00000000000000000000	      0.00000000000000000000	     30.40069395539317298471	    -19.93801823978539289328	     48.25896923464408416748	     18.71553770680204920041	     85.64439821879818737216	      0.00000000000000000000	      0.00000000000000000000
     17.94500000000000028422	     13.28693374492614509563	     -5.62094176076113516416	    172.71396813798835978560	      0.27053864771012758883	      0.93142227249159781355	     -0.59600192616217129160	     35.45235593037082821866	     -6.98931738031932070498	      0.87601005905741613500	     25.88637196682789820557	      0.45180242221710720241	      4.68236603783423266378	      0.00000000000000000000	      0.00000000000000000000	     32.90296688988912165996	     -1.47016583384129262413	    -13.14197132366142817261	     27.74216643391322989487	      0.48419214590803977272	      8.05652123818304666258	      0.00000000000000000000	      0.00000000000000000000	    -19.25091353875529875950	     -5.34586996871773845186	      0.29920705380643430882	     22.98590667018612521133	    -16.51629675229954941074	     48.99413689448875430799	     13.78556534183004878003	     14.91897767896759496864	      0.00000000000000000000	      0.00000000000000000000	     30.01266677553959993929	    -20.03689252431163581036	     48.15371428680936816136	     18.88040096878215479137	     85.78621900156151980354	      0.00000000000000000000	      0.00000000000000000000
     17.94999999999999928946	     12.69384508705479674973	     -5.63892112249683119529	    172.73525735872547670624	      0.26934801832607480065	      0.93270783929492595554	     -0.59629224602095876051	     34.69302027522347486865	     -7.11868057189576486365	      0.83739105496678345464	     25.81584725165126670277	      0.45057153373324376755	      4.79222577100454216747	      0.00000000000000000000	      0.00000000000000000000	     32.06185430387100865346	     -1.31118132322936342682	    -13.11401147975590930628	     27.46089646210848300711	      0.47928305881305527381	      7.99654970256127661798	      0.00000000000000000000	      0.00000000000000000000	    -19.23616689428591186584	     -5.41599684221710031551	      0.26729053779682082626	     22.63269376016225109538	    -16.52548887117741571728	     48.80451701547358567268	     13.85322090580032572404	     14.87536276836123327882	      0.00000000000000000000	      0.00000000000000000000	     29.67550461184691812377	    -20.16142564095810385538	     48.16051730559355092964	     19.10184084306813190324	     85.73448895482245291078	      0.00000000000000000000	      0.00000000000000000000
     17.95499999999999829470	     12.19265494887281597869	     -5.56060097196819747012	    172.73020944043017266267	      0.26820379255182785760	      0.93376466728403884066	     -0.59657445526914842926	     34.02240999646729591177	     -7.13331248962622321841	      0.76406436082356665729	     25.75275529455712231197	      0.44947037135042394729	      4.83695245020433972627	      0.00000000000000000000	      0.00000000000000000000	     31.36090942509067147626	     -1.28658100054257862332	    -13.07387779213987499816	     27.31324438250707231646	      0.47670604387659393231	      8.09428907034345002103	      0.00000000000000000000	      0.00000000000000000000	    -19.11173021126698756689	     -5.37262827850542823427	      0.33582654958556901192	     22.21112550027023146981	    -16.64493718606118122239	     48.67269562401797600160	     14.07617970625012127073	     14.62107829477585241307	      0.00000000000000000000	      0.00000000000000000000	     29.33517867268829348859	    -20.23947278922720727223	     48.26992522205106439515	     19.25227837790065166246	     85.70827916374189214821	      0.00000000000000000000	      0.00000000000000000000
